<svg width="20" height="20" viewBox="0 0 20 20" fill="none" xmlns="http://www.w3.org/2000/svg">
    <path d="M17.5 9.58333V12.5H15C14.337 12.5 13.7011 12.7634 13.2322 13.2322C12.7634 13.7011 12.5 14.337 12.5 15V17.5H3.75C3.41848 17.5 3.10054 17.3683 2.86612 17.1339C2.6317 16.8995 2.5 16.5815 2.5 16.25V3.75C2.5 3.41848 2.6317 3.10054 2.86612 2.86612C3.10054 2.6317 3.41848 2.5 3.75 2.5H11.25C11.5815 2.5 11.8995 2.3683 12.1339 2.13388C12.3683 1.89946 12.5 1.58152 12.5 1.25C12.5 0.918479 12.3683 0.600537 12.1339 0.366116C11.8995 0.131696 11.5815 0 11.25 0L3.75 0C2.75544 0 1.80161 0.395088 1.09835 1.09835C0.395088 1.80161 0 2.75544 0 3.75L0 16.25C0 17.2446 0.395088 18.1984 1.09835 18.9016C1.80161 19.6049 2.75544 20 3.75 20H13.7367C14.7308 20 15.6843 19.6052 16.3875 18.9025L18.9017 16.3883C19.6047 15.6853 19.9998 14.7318 20 13.7375V9.58333C20 9.25181 19.8683 8.93387 19.6339 8.69945C19.3995 8.46503 19.0815 8.33333 18.75 8.33333C18.4185 8.33333 18.1005 8.46503 17.8661 8.69945C17.6317 8.93387 17.5 9.25181 17.5 9.58333Z" fill="#61B7F6"/>
    <path style="transform: translateX(4px) translateY(0px)" d="M10.8275 1.49415L0.410793 11.9108C0.254502 12.0671 0.166673 12.279 0.166626 12.5V15C0.166626 15.221 0.254424 15.433 0.410704 15.5892C0.566984 15.7455 0.778946 15.8333 0.999959 15.8333H3.49996C3.72095 15.8333 3.93288 15.7454 4.08913 15.5891L14.365 5.31331C14.7127 4.97801 14.9683 4.5589 15.1072 4.09627C15.2462 3.63364 15.2637 3.14304 15.1583 2.67165C15.0403 2.23323 14.8095 1.83339 14.4889 1.51194C14.1683 1.19049 13.769 0.958657 13.3309 0.839542C12.8928 0.720426 12.4312 0.718183 11.9919 0.833036C11.5527 0.947889 11.1512 1.17583 10.8275 1.49415Z" fill="#61B7F6"/>
</svg>
